<?xml version="1.0" encoding="iso-8859-1"?>
<!-- Generator: Adobe Illustrator 19.0.0, SVG Export Plug-In . SVG Version: 6.00 Build 0)  -->
<svg version="1.1" id="Layer_1" xmlns="http://www.w3.org/2000/svg" xmlns:xlink="http://www.w3.org/1999/xlink" x="0px" y="0px"
	 viewBox="0 0 469.333 469.333" style="enable-background:new 0 0 469.333 469.333;" xml:space="preserve">
<g>
	<g>
		<path d="M469.333,42.665C469.333,19.135,450.198,0,426.667,0c-11.396,0-22.104,4.437-30.167,12.499L130.113,278.864
			c-4.945-0.997-10.055-1.543-15.29-1.543c-41.813,0-72.156,31.405-72.156,74.663c0,46.071-40.104,99.693-40.51,100.225
			c-2.406,3.187-2.833,7.448-1.104,11.041c1.719,3.604,5.302,5.937,9.292,6.062c0.177,0,0.906,0.021,2.167,0.021
			c7.688,0,35.073-0.719,76.083-9.718C145.614,447.105,192,399.889,192,354.37c0-5.199-0.548-10.269-1.536-15.182L456.833,72.83
			C464.896,64.768,469.333,54.06,469.333,42.665z M84.031,438.783c-22.146,4.854-40.146,7.166-52.729,8.25
			C44.594,425.439,64,387.785,64,351.984c0-31.405,20.896-53.331,50.823-53.331c30.792,0,55.844,24.999,55.844,55.716
			C170.666,389.816,130.989,428.481,84.031,438.783z M182.101,317.384c-7.043-12.709-17.461-23.117-30.186-30.156l60.122-60.117
			l30.171,30.169L182.101,317.384z M441.75,57.747l-184.458,184.45l-30.171-30.169L411.583,27.582
			c4.031-4.031,9.385-6.25,15.083-6.25c11.76,0,21.333,9.573,21.333,21.332C448,48.362,445.781,53.716,441.75,57.747z"/>
	</g>
</g>
<g>
</g>
<g>
</g>
<g>
</g>
<g>
</g>
<g>
</g>
<g>
</g>
<g>
</g>
<g>
</g>
<g>
</g>
<g>
</g>
<g>
</g>
<g>
</g>
<g>
</g>
<g>
</g>
<g>
</g>
</svg>
