<?xml version="1.0" encoding="iso-8859-1"?>
<!-- Generator: Adobe Illustrator 19.0.0, SVG Export Plug-In . SVG Version: 6.00 Build 0)  -->
<svg version="1.1" id="Capa_1" xmlns="http://www.w3.org/2000/svg" xmlns:xlink="http://www.w3.org/1999/xlink" x="0px" y="0px"
	 viewBox="0 0 512.01 512.01" style="enable-background:new 0 0 512.01 512.01;" xml:space="preserve">
<g>
	<g>
		<g>
			<path d="M277.338,117.467V10.677c0-5.896-4.771-10.667-10.667-10.667h-3.656c-41.76,0-81.021,16.26-110.552,45.792
				c-2,2-3.125,4.708-3.125,7.542v64.124c-14.19,6.526-19.004,14.03-20.208,16.439c-0.74,1.479-1.125,3.115-1.125,4.771v330.667
				c0,23.531,19.135,42.667,42.667,42.667h85.333c23.531,0,42.667-19.135,42.667-42.667V138.677c0-1.656-0.385-3.292-1.125-4.771
				C296.342,131.497,291.528,123.993,277.338,117.467z M170.672,57.854c23.406-21.979,53.344-34.708,85.333-36.333v24.436
				c-6.258,3.724-10.667,10.262-10.667,18.053s4.409,14.329,10.667,18.053v28.574c-11.125-2.382-25.057-3.961-42.667-3.961
				c-17.611,0-31.542,1.581-42.667,3.962V57.854z M277.338,469.343c0,11.76-9.573,21.333-21.333,21.333h-85.333
				c-11.76,0-21.333-9.573-21.333-21.333V142.468c4.354-4,19.958-14.458,64-14.458c44.635,0,60.063,10.74,64,14.302V469.343z"/>
			<path d="M320.005,53.343h-10.667c-5.896,0-10.667,4.771-10.667,10.667s4.771,10.667,10.667,10.667h10.667
				c5.896,0,10.667-4.771,10.667-10.667S325.901,53.343,320.005,53.343z"/>
			<path d="M362.672,74.677h10.667c5.896,0,10.667-4.771,10.667-10.667s-4.771-10.667-10.667-10.667h-10.667
				c-5.896,0-10.667,4.771-10.667,10.667S356.776,74.677,362.672,74.677z"/>
			<path d="M309.338,42.677c1.115,0,2.26-0.177,3.375-0.552l10.115-3.375c5.594-1.865,8.604-7.906,6.74-13.49
				s-7.917-8.594-13.49-6.74l-10.115,3.375c-5.594,1.865-8.604,7.906-6.74,13.49C300.713,39.854,304.87,42.677,309.338,42.677z"/>
			<path d="M363.224,24.718c1.115,0,2.26-0.177,3.375-0.552l10.115-3.375c5.594-1.865,8.604-7.906,6.74-13.49
				c-1.854-5.573-7.896-8.635-13.49-6.74l-10.115,3.375c-5.594,1.865-8.604,7.906-6.74,13.49
				C354.599,21.895,358.755,24.718,363.224,24.718z"/>
			<path d="M322.828,89.27l-10.115-3.375c-5.563-1.865-11.625,1.156-13.49,6.74s1.146,11.625,6.74,13.49l10.115,3.375
				c1.115,0.375,2.26,0.552,3.375,0.552c4.469,0,8.625-2.823,10.115-7.292C331.432,97.177,328.422,91.135,322.828,89.27z"/>
			<path d="M376.713,107.229l-10.115-3.375c-5.604-1.875-11.635,1.156-13.49,6.74c-1.865,5.583,1.146,11.625,6.74,13.49
				l10.115,3.375c1.115,0.375,2.26,0.552,3.375,0.552c4.469,0,8.625-2.823,10.115-7.292
				C385.318,115.135,382.307,109.093,376.713,107.229z"/>
		</g>
	</g>
</g>
<g>
</g>
<g>
</g>
<g>
</g>
<g>
</g>
<g>
</g>
<g>
</g>
<g>
</g>
<g>
</g>
<g>
</g>
<g>
</g>
<g>
</g>
<g>
</g>
<g>
</g>
<g>
</g>
<g>
</g>
</svg>
